# xmcd
#
# Track frame offsets:
#	150
#	13410
#	19867
#	28782
#	46475
#	59687
#	72880
#	77837
#	95947
#	103527
#	109340
#	131790
#	143855
#	151245
#	163397
#	182492
#
# Disc length: 2737 seconds
#
# Revision: 1
# Processed by: cddbd v1.5.1PL0 Copyright (c) Steve Scherf et al.
# Submitted via: CDex 1.50Beta5
#
DISCID=eb0aaf10
DTITLE=久石 譲 - 川の流れのように
DYEAR=1900
DGENRE=Soundtrack
TTITLE0=Village Song
TTITLE1=Memories
TTITLE2=ふれあい・
TTITLE3=記憶の扉
TTITLE4=ときめき
TTITLE5=Old Fishermans
TTITLE6=グラフィティ
TTITLE7=ふれあい・
TTITLE8=残された時間
TTITLE9=Memories〜refrain
TTITLE10=The River
TTITLE11=A Storm
TTITLE12=Voice of the Sea
TTITLE13=時は流れて
TTITLE14=The River〜別れ〜
TTITLE15=川の流れのように2000
EXTD=
EXTT0=
EXTT1=
EXTT2=
EXTT3=
EXTT4=
EXTT5=
EXTT6=
EXTT7=
EXTT8=
EXTT9=
EXTT10=
EXTT11=
EXTT12=
EXTT13=
EXTT14=
EXTT15=
PLAYORDER=
